<svg width="512" height="512" viewBox="0 0 512 512" fill="none" xmlns="http://www.w3.org/2000/svg">
<rect width="512" height="512" rx="64" fill="black"/>
<path d="M256 0C256 0 270.125 131.838 325.143 186.857C380.162 241.875 512 256 512 256C512 256 380.162 270.125 325.143 325.143C270.125 380.162 256 512 256 512C256 512 241.875 380.162 186.857 325.143C131.838 270.125 0 256 0 256C0 256 131.838 241.875 186.857 186.857C241.875 131.838 256 0 256 0Z" fill="white"/>
<path d="M99.7246 341.104C99.7246 341.104 180.127 352.991 213.438 352.991C246.749 352.991 278.696 339.758 302.25 316.204C325.805 292.649 339.038 260.702 339.038 227.391C339.038 194.08 327.151 113.678 327.151 113.678C327.151 113.678 302.903 247.489 268.219 282.173C233.536 316.856 99.7246 341.104 99.7246 341.104Z" fill="black"/>
<path d="M46.3912 274.438C46.3912 274.438 126.793 286.324 160.105 286.324C193.416 286.324 225.363 273.091 248.917 249.537C272.472 225.982 285.704 194.036 285.704 160.724C285.704 127.413 273.818 47.011 273.818 47.011C273.818 47.011 249.57 180.822 214.886 215.506C180.203 250.189 46.3912 274.438 46.3912 274.438Z" fill="black"/>
</svg>