<svg width="256" height="256" viewBox="0 0 256 256" fill="none" xmlns="http://www.w3.org/2000/svg">
<rect width="256" height="256" rx="32" fill="black"/>
<path d="M128 0C128 0 135.062 65.9192 162.572 93.4284C190.081 120.938 256 128 256 128C256 128 190.081 135.062 162.572 162.572C135.062 190.081 128 256 128 256C128 256 120.938 190.081 93.4284 162.572C65.9192 135.062 0 128 0 128C0 128 65.9192 120.938 93.4284 93.4284C120.938 65.9192 128 0 128 0Z" fill="white"/>
<path d="M49.8623 170.552C49.8623 170.552 90.0633 176.495 106.719 176.495C123.375 176.495 139.348 169.879 151.125 158.102C162.903 146.325 169.519 130.351 169.519 113.696C169.519 97.0399 163.576 56.8389 163.576 56.8389C163.576 56.8389 151.451 123.745 134.11 141.086C116.768 158.428 49.8623 170.552 49.8623 170.552Z" fill="black"/>
<path d="M23.1956 137.219C23.1956 137.219 63.3967 143.162 80.0523 143.162C96.7078 143.162 112.681 136.546 124.459 124.768C136.236 112.991 142.852 97.0178 142.852 80.3622C142.852 63.7066 136.909 23.5055 136.909 23.5055C136.909 23.5055 124.785 90.4112 107.443 107.753C90.1013 125.095 23.1956 137.219 23.1956 137.219Z" fill="black"/>
</svg>
